P2
3 3
794

0 783 0 
0 0 794 
781 0 0 
