P2
3 3
783

0 692 0 
0 0 726 
783 0 0 
