P2
3 3
910

690 880 910 
120 740 760 
890 290 320 
